<svg xmlns="http://www.w3.org/2000/svg" width="95.5" height="55" viewBox="0 0 95.5 55">
    <defs>
        <linearGradient id="linear-gradient" x1=".086" x2="1.212" y1=".5" y2=".5" gradientUnits="objectBoundingBox">
            <stop offset=".001" stop-color="#00c7e0"/>
            <stop offset="1" stop-color="#00ff8d"/>
        </linearGradient>
        <linearGradient id="linear-gradient-2" x1=".029" x2=".909" y1="-.065" y2=".887" gradientUnits="objectBoundingBox">
            <stop offset=".003" stop-color="#1c2938"/>
            <stop offset="1" stop-color="#0062dc"/>
        </linearGradient>
        <linearGradient id="linear-gradient-3" x1=".922" x2=".247" y1="-.596" y2=".985" gradientUnits="objectBoundingBox">
            <stop offset=".003" stop-color="#00c7e0"/>
            <stop offset="1" stop-color="#0062dc"/>
        </linearGradient>
        <clipPath id="clip-path">
            <circle id="Ellipse_75" cx="26" cy="26" r="26" fill="#5d95c7"/>
        </clipPath>
        <style>
            .cls-2{fill:none}.cls-3{fill:#fff;stroke:#e5e7eb}.cls-5{fill:#e82127}
        </style>
    </defs>
    <g id="dop-tsla" transform="translate(0.599 -4.569)">
        <path id="bg" d="M0 0H95V55H0z" class="cls-2" transform="translate(-0.599 4.569)"/>
        <g id="TSLA" transform="translate(-405.599 -363.431)">
            <circle id="bg-2" cx="26" cy="26" r="26" class="cls-3" transform="translate(448 370)"/>
            <g id="logo" clip-path="url(#clip-path)" transform="translate(448 370)">
                <g id="T" transform="translate(13.283 13.276)">
                    <path id="path35" d="M21.183 37.974l3.716-20.9c3.542 0 4.66.388 4.821 1.974a8.355 8.355 0 0 0 3.58-2.687 26.262 26.262 0 0 0-9.381-2.261l-2.742 3.34h.006l-2.742-3.34a26.259 26.259 0 0 0-9.376 2.265 8.349 8.349 0 0 0 3.575 2.686c.162-1.586 1.278-1.974 4.8-1.977l3.746 20.9" class="cls-5" transform="translate(-7.899 -11.522)"/>
                    <path id="path37" d="M20.592 11.83a30.62 30.62 0 0 1 12.538 2.516 10.181 10.181 0 0 0 .744-1.537 36.361 36.361 0 0 0-13.283-2.588A36.357 36.357 0 0 0 7.31 12.809a12.851 12.851 0 0 0 .744 1.537 30.617 30.617 0 0 1 12.538-2.516" class="cls-5" transform="translate(-7.31 -10.221)"/>
                </g>
            </g>
            <path id="bg-3" d="M0 0H30V30H0z" class="cls-2" transform="translate(459 381)"/>
        </g>
        <g id="DOP" transform="translate(-1.918 -0.347)">
            <g id="Ellipse_20" class="cls-3" transform="translate(1.319 6.916)">
                <circle cx="26" cy="26" r="26"/>
                <circle cx="26" cy="26" r="25.5" class="cls-2"/>
            </g>
            <path id="bg-4" d="M0 0H30V30H0z" class="cls-2" transform="translate(12.319 17.916)"/>
            <g id="icon" transform="translate(-115.868 -186.722)">
                <path id="Path_3282" fill="url(#linear-gradient)" d="M151.492 275.39l-3.62-6.27h-15.958a3.911 3.911 0 0 1-3.725-2.82 5.4 5.4 0 0 0 .721 2.82l1.026 1.778 3.9 6.76a4.946 4.946 0 0 0 4.283 2.473h9.859a5.406 5.406 0 0 0 3.04-.937c.022-.032 1.329-2.324.474-3.804z" transform="translate(0 -47.06)"/>
                <path id="Path_3283" fill="url(#linear-gradient-2)" d="M209.359 218.865l-4.8-8.306a5.4 5.4 0 0 0-1.762-1.845c-.107-.031-2.933-.845-3.923.869l-3.8 6.576 4.685 8.115 3.62 6.27c.855 1.481-.452 3.772-.47 3.8a5.4 5.4 0 0 0 1.645-1.769l.718-1.244 4.077-7.062a5.41 5.41 0 0 0 .01-5.404z" transform="translate(-51.897 -2.216)"/>
                <path id="Path_3284" fill="url(#linear-gradient-3)" d="M147.986 205.638h-9.591a5.41 5.41 0 0 0-4.685 2.705l-4.8 8.306a5.4 5.4 0 0 0-.721 2.59c.241 1.987 3.035 2.82 3.035 2.82h7.277l4.685-8.115 3.8-6.576c.99-1.715 3.815-.9 3.923-.87a5.407 5.407 0 0 0-2.923-.86z" transform="translate(-0.004)"/>
            </g>
        </g>
    </g>
</svg>
