<svg xmlns="http://www.w3.org/2000/svg" width="95.5" height="55" viewBox="0 0 95.5 55">
    <defs>
        <linearGradient id="linear-gradient" x1=".086" x2="1.212" y1=".5" y2=".5" gradientUnits="objectBoundingBox">
            <stop offset=".001" stop-color="#00c7e0"/>
            <stop offset="1" stop-color="#00ff8d"/>
        </linearGradient>
        <linearGradient id="linear-gradient-2" x1=".029" x2=".909" y1="-.065" y2=".887" gradientUnits="objectBoundingBox">
            <stop offset=".003" stop-color="#1c2938"/>
            <stop offset="1" stop-color="#0062dc"/>
        </linearGradient>
        <linearGradient id="linear-gradient-3" x1=".922" x2=".247" y1="-.596" y2=".985" gradientUnits="objectBoundingBox">
            <stop offset=".003" stop-color="#00c7e0"/>
            <stop offset="1" stop-color="#0062dc"/>
        </linearGradient>
        <style>
            .cls-1{fill:none}.cls-2{fill:#fff;stroke:#e5e7eb}.cls-3{fill:#f90}.cls-4{fill-rule:evenodd}
        </style>
    </defs>
    <g id="dop-amza" transform="translate(0.599 -4.569)">
        <path id="bg" d="M0 0H95V55H0z" class="cls-1" transform="translate(-0.599 4.569)"/>
        <g id="AMZA" transform="translate(-406.599 -604.917)">
            <circle id="bg-2" cx="26.5" cy="26.5" r="26.5" class="cls-2" transform="translate(448 610.485)"/>
            <path id="bg-3" d="M0 0H30V30H0z" class="cls-1" transform="translate(460 621.485)"/>
            <g id="amazon-icon" transform="translate(461 622.485)">
                <path id="Path_3058" d="M25.429 32.135C13.439 37.841 6 33.067 1.235 30.167c-.295-.183-.8.043-.361.542 1.587 1.924 6.787 6.562 13.575 6.562a15.8 15.8 0 0 0 11.339-4.353c.5-.641.147-.995-.36-.783zm3.367-1.86c-.322-.419-1.958-.5-2.987-.371s-2.579.753-2.444 1.131c.069.142.21.078.918.014s2.7-.322 3.115.22-.635 3.145-.827 3.565.071.527.419.248a5.438 5.438 0 0 0 1.383-2.025c.415-1.029.667-2.463.423-2.783z" class="cls-3" transform="translate(-0.704 -8.222)"/>
                <path id="Path_3059" d="M19.38 12.338a7.517 7.517 0 0 1-.719 4.075A3.116 3.116 0 0 1 16 18.159c-1.476 0-2.335-1.124-2.335-2.784 0-3.275 2.935-3.87 5.713-3.87zm3.875 9.362a.8.8 0 0 1-.908.092 9.459 9.459 0 0 1-2.205-2.562c-2.108 2.151-3.6 2.794-6.335 2.794-3.232 0-5.751-1.994-5.751-5.989a6.53 6.53 0 0 1 4.1-6.281c2.086-.919 5-1.081 7.227-1.335v-.5a4.945 4.945 0 0 0-.465-2.784 2.571 2.571 0 0 0-2.157-1 2.929 2.929 0 0 0-3.092 2.308.8.8 0 0 1-.665.7l-3.729-.4a.681.681 0 0 1-.575-.794c.859-4.518 4.94-5.88 8.594-5.88a8.713 8.713 0 0 1 5.789 1.913c1.87 1.746 1.692 4.075 1.692 6.61v5.989a5.256 5.256 0 0 0 1.449 3.562.722.722 0 0 1-.011 1.021c-.784.654-2.178 1.87-2.946 2.551l-.011-.011" class="cls-4" transform="translate(-2.717 -0.069)"/>
                <path id="Path_3060" d="M25.429 32.135C13.439 37.841 6 33.067 1.235 30.167c-.295-.183-.8.043-.361.542 1.587 1.924 6.787 6.562 13.575 6.562a15.8 15.8 0 0 0 11.339-4.353c.5-.641.147-.995-.36-.783zm3.367-1.86c-.322-.419-1.958-.5-2.987-.371s-2.579.753-2.444 1.131c.069.142.21.078.918.014s2.7-.322 3.115.22-.635 3.145-.827 3.565.071.527.419.248a5.438 5.438 0 0 0 1.383-2.025c.415-1.029.667-2.463.423-2.783z" class="cls-3" transform="translate(-0.704 -8.222)"/>
                <path id="Path_3061" d="M19.38 12.338a7.517 7.517 0 0 1-.719 4.075A3.116 3.116 0 0 1 16 18.159c-1.476 0-2.335-1.124-2.335-2.784 0-3.275 2.935-3.87 5.713-3.87zm3.875 9.362a.8.8 0 0 1-.908.092 9.459 9.459 0 0 1-2.205-2.562c-2.108 2.151-3.6 2.794-6.335 2.794-3.232 0-5.751-1.994-5.751-5.989a6.53 6.53 0 0 1 4.1-6.281c2.086-.919 5-1.081 7.227-1.335v-.5a4.945 4.945 0 0 0-.465-2.784 2.571 2.571 0 0 0-2.157-1 2.929 2.929 0 0 0-3.092 2.308.8.8 0 0 1-.665.7l-3.729-.4a.681.681 0 0 1-.575-.794c.859-4.518 4.94-5.88 8.594-5.88a8.713 8.713 0 0 1 5.789 1.913c1.87 1.746 1.692 4.075 1.692 6.61v5.989a5.256 5.256 0 0 0 1.449 3.562.722.722 0 0 1-.011 1.021c-.784.654-2.178 1.87-2.946 2.551l-.011-.011" class="cls-4" transform="translate(-2.717 -0.069)"/>
            </g>
        </g>
        <g id="DOP" transform="translate(-1.918 -0.347)">
            <g id="Ellipse_20" class="cls-2" transform="translate(1.319 6.916)">
                <circle cx="26" cy="26" r="26"/>
                <circle cx="26" cy="26" r="25.5" class="cls-1"/>
            </g>
            <path id="bg-4" d="M0 0H30V30H0z" class="cls-1" transform="translate(12.319 17.916)"/>
            <g id="icon" transform="translate(-115.868 -186.722)">
                <path id="Path_3282" fill="url(#linear-gradient)" d="M151.492 275.39l-3.62-6.27h-15.958a3.911 3.911 0 0 1-3.725-2.82 5.4 5.4 0 0 0 .721 2.82l1.026 1.778 3.9 6.76a4.946 4.946 0 0 0 4.283 2.473h9.859a5.406 5.406 0 0 0 3.04-.937c.022-.032 1.329-2.324.474-3.804z" transform="translate(0 -47.06)"/>
                <path id="Path_3283" fill="url(#linear-gradient-2)" d="M209.359 218.865l-4.8-8.306a5.4 5.4 0 0 0-1.762-1.845c-.107-.031-2.933-.845-3.923.869l-3.8 6.576 4.685 8.115 3.62 6.27c.855 1.481-.452 3.772-.47 3.8a5.4 5.4 0 0 0 1.645-1.769l.718-1.244 4.077-7.062a5.41 5.41 0 0 0 .01-5.404z" transform="translate(-51.897 -2.216)"/>
                <path id="Path_3284" fill="url(#linear-gradient-3)" d="M147.986 205.638h-9.591a5.41 5.41 0 0 0-4.685 2.705l-4.8 8.306a5.4 5.4 0 0 0-.721 2.59c.241 1.987 3.035 2.82 3.035 2.82h7.277l4.685-8.115 3.8-6.576c.99-1.715 3.815-.9 3.923-.87a5.407 5.407 0 0 0-2.923-.86z" transform="translate(-0.004)"/>
            </g>
        </g>
    </g>
</svg>
