<svg xmlns="http://www.w3.org/2000/svg" width="95.5" height="55" viewBox="0 0 95.5 55">
    <defs>
        <linearGradient id="linear-gradient" x1=".086" x2="1.212" y1=".5" y2=".5" gradientUnits="objectBoundingBox">
            <stop offset=".001" stop-color="#00c7e0"/>
            <stop offset="1" stop-color="#00ff8d"/>
        </linearGradient>
        <linearGradient id="linear-gradient-2" x1=".029" x2=".909" y1="-.065" y2=".887" gradientUnits="objectBoundingBox">
            <stop offset=".003" stop-color="#1c2938"/>
            <stop offset="1" stop-color="#0062dc"/>
        </linearGradient>
        <linearGradient id="linear-gradient-3" x1=".922" x2=".247" y1="-.596" y2=".985" gradientUnits="objectBoundingBox">
            <stop offset=".003" stop-color="#00c7e0"/>
            <stop offset="1" stop-color="#0062dc"/>
        </linearGradient>
        <clipPath id="clip-path">
            <circle id="Ellipse_76" cx="26" cy="26" r="26" fill="#5d95c7"/>
        </clipPath>
        <style>
            .cls-2{fill:none}.cls-3{fill:#fff;stroke:#e5e7eb}
        </style>
    </defs>
    <g id="dop-aapl" transform="translate(0.599 -4.569)">
        <path id="bg" d="M0 0H95V55H0z" class="cls-2" transform="translate(-0.599 4.569)"/>
        <g id="AAPL" transform="translate(-405.599 -443.431)">
            <circle id="bg-2" cx="26" cy="26" r="26" class="cls-3" transform="translate(448 450)"/>
            <g id="icon" clip-path="url(#clip-path)" transform="translate(448 450)">
                <path id="Apple_logo_black" d="M19.543 26.734c-1.509 1.464-3.173 1.236-4.76.546a6.031 6.031 0 0 0-5.01 0c-2.219.958-3.4.679-4.732-.546C-2.5 18.968-1.39 7.138 7.184 6.693c2.079.111 3.535 1.15 4.76 1.236 1.82-.37 3.563-1.431 5.511-1.292a6.713 6.713 0 0 1 5.261 2.775 6.119 6.119 0 0 0 .749 11.023 15.647 15.647 0 0 1-3.925 6.319zM11.777 6.609A6.337 6.337 0 0 1 17.566.04c.443 3.981-3.618 6.96-5.789 6.569z" transform="translate(14.294 11.66)"/>
            </g>
            <path id="bg-3" d="M0 0H30V30H0z" class="cls-2" transform="translate(459 461)"/>
        </g>
        <g id="DOP" transform="translate(-1.918 -0.347)">
            <g id="Ellipse_20" class="cls-3" transform="translate(1.319 6.916)">
                <circle cx="26" cy="26" r="26"/>
                <circle cx="26" cy="26" r="25.5" class="cls-2"/>
            </g>
            <path id="bg-4" d="M0 0H30V30H0z" class="cls-2" transform="translate(12.319 17.916)"/>
            <g id="icon-2" transform="translate(-115.868 -186.722)">
                <path id="Path_3282" fill="url(#linear-gradient)" d="M151.492 275.39l-3.62-6.27h-15.958a3.911 3.911 0 0 1-3.725-2.82 5.4 5.4 0 0 0 .721 2.82l1.026 1.778 3.9 6.76a4.946 4.946 0 0 0 4.283 2.473h9.859a5.406 5.406 0 0 0 3.04-.937c.022-.032 1.329-2.324.474-3.804z" transform="translate(0 -47.06)"/>
                <path id="Path_3283" fill="url(#linear-gradient-2)" d="M209.359 218.865l-4.8-8.306a5.4 5.4 0 0 0-1.762-1.845c-.107-.031-2.933-.845-3.923.869l-3.8 6.576 4.685 8.115 3.62 6.27c.855 1.481-.452 3.772-.47 3.8a5.4 5.4 0 0 0 1.645-1.769l.718-1.244 4.077-7.062a5.41 5.41 0 0 0 .01-5.404z" transform="translate(-51.897 -2.216)"/>
                <path id="Path_3284" fill="url(#linear-gradient-3)" d="M147.986 205.638h-9.591a5.41 5.41 0 0 0-4.685 2.705l-4.8 8.306a5.4 5.4 0 0 0-.721 2.59c.241 1.987 3.035 2.82 3.035 2.82h7.277l4.685-8.115 3.8-6.576c.99-1.715 3.815-.9 3.923-.87a5.407 5.407 0 0 0-2.923-.86z" transform="translate(-0.004)"/>
            </g>
        </g>
    </g>
</svg>
