<svg xmlns="http://www.w3.org/2000/svg" width="95" height="55" viewBox="0 0 95 55">
    <defs>
        <linearGradient id="linear-gradient" x1=".5" x2=".5" y1=".988" y2="-.002" gradientUnits="objectBoundingBox">
            <stop offset=".001" stop-color="#00cae3"/>
            <stop offset="1" stop-color="#00ff7f"/>
        </linearGradient>
        <linearGradient id="linear-gradient-2" x1=".5" x2=".5" y1="1.684" y2="-.51" gradientUnits="objectBoundingBox">
            <stop offset=".003" stop-color="#182939"/>
            <stop offset="1" stop-color="#0064e3"/>
        </linearGradient>
        <clipPath id="clip-path">
            <circle id="Ellipse_75" cx="26" cy="26" r="26" fill="#5d95c7"/>
        </clipPath>
        <style>
            .cls-2{fill:none}.cls-5{fill:#e82127}.cls-7{fill:#e1f7ff}
        </style>
    </defs>
    <g id="dolly-tsla" transform="translate(0.599 -4.569)">
        <path id="bg" d="M0 0H95V55H0z" class="cls-2" transform="translate(-0.599 4.569)"/>
        <g id="TSLA" transform="translate(-405.599 -363.431) translate(448 370)">
            <g id="bg-2" fill="#fff" stroke="#e5e7eb">
                <circle cx="26" cy="26" r="26" stroke="none"/>
                <circle cx="26" cy="26" r="25.5" class="cls-2"/>
            </g>
            <g id="logo" clip-path="url(#clip-path)">
                <g id="T" transform="translate(13.283 13.276)">
                    <path id="path35" d="M21.183 37.974l3.716-20.9c3.542 0 4.66.388 4.821 1.974a8.355 8.355 0 0 0 3.58-2.687 26.262 26.262 0 0 0-9.381-2.261l-2.742 3.34h.006l-2.742-3.34a26.259 26.259 0 0 0-9.376 2.265 8.349 8.349 0 0 0 3.575 2.686c.162-1.586 1.278-1.974 4.8-1.977l3.746 20.9" class="cls-5" transform="translate(-7.899 -11.522)"/>
                    <path id="path37" d="M20.592 11.83a30.62 30.62 0 0 1 12.538 2.516 10.181 10.181 0 0 0 .744-1.537 36.361 36.361 0 0 0-13.283-2.588A36.357 36.357 0 0 0 7.31 12.809a12.851 12.851 0 0 0 .744 1.537 30.617 30.617 0 0 1 12.538-2.516" class="cls-5" transform="translate(-7.31 -10.221)"/>
                </g>
            </g>
        </g>
        <g id="DOLLY" transform="translate(-354.167 -196.021)">
            <circle id="Ellipse_99" cx="25.955" cy="25.955" r="25.955" fill="url(#linear-gradient)" transform="translate(353.568 202.59)"/>
            <path id="Path_3279" d="M399.877 248.137c-.67-3.854-1.936-5.361-2.878-7.376a5.193 5.193 0 0 0 2.707.023c.71-.229-.5-1.588-1.554-1.936a4.817 4.817 0 0 0-1.9-.184c-.091-.363-.174-.746-.239-1.171-.247-1.616.1-3.422 1.948-3.733 1.145-.193 2.23 1.065 3.235 1.482a6.866 6.866 0 0 0 6.7-.538c.657-.467 1.338-1.091 2.209-.944 1.846.311 2.194 2.117 1.947 3.733-.066.429-.149.817-.241 1.183a5.017 5.017 0 0 0-2.076.172c-1.05.348-2.264 1.706-1.554 1.936a4.872 4.872 0 0 0 2.927-.117c-.946 2.063-2.241 3.558-2.921 7.47a23.437 23.437 0 0 1-.656 2.9 2.639 2.639 0 0 1-2.294.115c-.736-.384-.511-1.278-.02-1.766.291-.289.709-.449 1-.74a4 4 0 0 0 .512-.865c-.327-.1-.792-.384-.958-.263a2.654 2.654 0 0 1-3.473-.011c-.163-.117-.628.183-.953.29a2.964 2.964 0 0 0 .424.827c.45.444 1.086.744 1.415 1.252a1.414 1.414 0 0 1-.143 1.31 4.109 4.109 0 0 1-2.421.091 21.557 21.557 0 0 1-.743-3.14z" class="cls-7" transform="translate(-25.527 -18.765)"/>
            <path id="Path_3280" d="M411.163 280.786c0 .006-.008.01-.011.016a2.626 2.626 0 0 1-2.38-1.5 13.108 13.108 0 0 1 2.99-.727c.882-.01 1.973.611 3.017.677a2.563 2.563 0 0 1-2.242 1.525z" class="cls-7" transform="translate(-33.256 -45.779)"/>
            <path id="Path_3281" fill="url(#linear-gradient-2)" d="M416.046 239.019c-1.7.364-5.389-2.082-6.264-4.3a22.094 22.094 0 0 0-3.768-5.753.793.793 0 0 1 .2-1.257 6.712 6.712 0 0 0 2.948-6.128c-1.236-.738-3.328-.173-4.923.462-.161-1.878-3.264-2.2-3.264-2.2-3.4-3.638-6.539-2.391-6.539-2.391a7.226 7.226 0 0 0-6.158.955c-.034.018-.064.046-.1.066-3.856.152-5.344 2.329-5.84 3.38a2.079 2.079 0 0 0-.328.633 9.086 9.086 0 0 0-5.448-.536c-.933 4.663 4.759 6.977 4.759 6.977-2.055 7.748.654 8-.242 12.5-.515 2.585.693 5.311.783 7.163.152 3.125-.637 8.341-.489 11.789a25.962 25.962 0 0 0 37.863-21.815 23.237 23.237 0 0 0-3.19.455zm-38.7-16.305a15.439 15.439 0 0 1 4.108 3.186c1.378 1.743-3.17 2.478-4.11-3.186zm15.729 21.068h-1.373c0 .006-.008.01-.012.016a2.626 2.626 0 0 1-2.38-1.5 13.109 13.109 0 0 1 2.99-.727c.882-.01 1.973.611 3.017.677a2.563 2.563 0 0 1-2.244 1.534zm7.245-16.275c-.066.429-.149.817-.241 1.183a5.016 5.016 0 0 0-2.076.172c-1.05.348-2.264 1.706-1.554 1.936a4.872 4.872 0 0 0 2.927-.117c-.946 2.063-2.241 3.558-2.921 7.47a23.426 23.426 0 0 1-.656 2.9 2.639 2.639 0 0 1-2.294.115c-.736-.384-.511-1.278-.02-1.766.291-.289.709-.449 1-.74a4 4 0 0 0 .512-.865c-.327-.1-.792-.384-.958-.263a2.654 2.654 0 0 1-3.473-.011c-.163-.117-.628.183-.953.29a2.965 2.965 0 0 0 .424.827c.45.444 1.086.744 1.415 1.252a1.414 1.414 0 0 1-.143 1.31 4.109 4.109 0 0 1-2.421.091 21.565 21.565 0 0 1-.737-3.136c-.67-3.854-1.936-5.361-2.878-7.376a5.194 5.194 0 0 0 2.707.023c.71-.229-.5-1.588-1.554-1.936a4.817 4.817 0 0 0-1.9-.184c-.091-.363-.174-.746-.239-1.171-.247-1.616.1-3.422 1.948-3.733 1.145-.193 2.23 1.065 3.235 1.482a6.866 6.866 0 0 0 6.7-.538c.657-.467 1.338-1.091 2.209-.944 1.838.308 2.186 2.113 1.94 3.73zm4.166-1.948a15.442 15.442 0 0 1 3.931-3.4c-.636 5.705-5.217 5.214-3.932 3.4z" transform="translate(-13.794 -8.78)"/>
        </g>
    </g>
</svg>
