<svg xmlns="http://www.w3.org/2000/svg" width="95.979" height="55" viewBox="0 0 95.979 55">
    <defs>
        <linearGradient id="linear-gradient" x1=".086" x2="1.212" y1=".5" y2=".5" gradientUnits="objectBoundingBox">
            <stop offset=".001" stop-color="#00c7e0"/>
            <stop offset="1" stop-color="#00ff8d"/>
        </linearGradient>
        <linearGradient id="linear-gradient-2" x1=".029" x2=".909" y1="-.065" y2=".887" gradientUnits="objectBoundingBox">
            <stop offset=".003" stop-color="#1c2938"/>
            <stop offset="1" stop-color="#0062dc"/>
        </linearGradient>
        <linearGradient id="linear-gradient-3" x1=".922" x2=".247" y1="-.596" y2=".985" gradientUnits="objectBoundingBox">
            <stop offset=".003" stop-color="#00c7e0"/>
            <stop offset="1" stop-color="#0062dc"/>
        </linearGradient>
        <clipPath id="clip-path">
            <circle id="Ellipse_79" cx="26.24" cy="26.24" r="26.24" fill="#5d95c7"/>
        </clipPath>
        <clipPath id="clip-path-2">
            <path id="Path_3063" d="M26.76 12.382H14.729v4.988h6.925c-.646 3.169-3.345 4.988-6.925 4.988a7.629 7.629 0 0 1 0-15.259 7.464 7.464 0 0 1 4.754 1.7l3.756-3.756a12.9 12.9 0 1 0-8.51 22.595c6.456 0 12.324-4.695 12.324-12.911a10.711 10.711 0 0 0-.293-2.345z" transform="translate(-1.818 -1.818)"/>
        </clipPath>
        <style>
            .cls-2{fill:none}.cls-3{fill:#fff;stroke:#e5e7eb}.cls-5{clip-path:url(#clip-path-2)}
        </style>
    </defs>
    <g id="dop-googl" transform="translate(0.599 -4.569)">
        <path id="bg" d="M0 0H95V55H0z" class="cls-2" transform="translate(-0.599 4.569)"/>
        <g id="GOOGL" transform="translate(-405.599 -684.201)">
            <circle id="bg-2" cx="26.24" cy="26.24" r="26.24" class="cls-3" transform="translate(448 690.77)"/>
            <g id="icon" clip-path="url(#clip-path)" transform="translate(448 690.486)">
                <g id="Google__G__Logo" transform="translate(13.622 13.329)">
                    <g id="Group_849" class="cls-5" transform="translate(0 0)">
                        <path id="Path_3062" fill="#fbbc05" d="M0 25.259V10l9.977 7.629z" transform="translate(-1.174 -4.718)"/>
                    </g>
                    <g id="Group_850" class="cls-5" transform="translate(0 0)">
                        <path id="Path_3064" fill="#ea4335" d="M0 6.456l9.977 7.629 4.108-3.58L28.17 8.216V0H0z" transform="translate(-1.174 -1.174)"/>
                    </g>
                    <g id="Group_851" class="cls-5" transform="translate(0 0)">
                        <path id="Path_3066" fill="#34a853" d="M0 21.714l17.606-13.5 4.636.587L28.17 0v28.17H0z" transform="translate(-1.174 -1.174)"/>
                    </g>
                    <g id="Group_852" class="cls-5" transform="translate(0 0)">
                        <path id="Path_3068" fill="#4285f4" d="M32.359 31.714L14.166 17.629l-2.347-1.761L32.359 10z" transform="translate(-5.363 -4.718)"/>
                    </g>
                </g>
            </g>
            <path id="bg-3" d="M0 0H30V30H0z" class="cls-2" transform="translate(459 701.77)"/>
        </g>
        <g id="DOP" transform="translate(-1.918 -0.347)">
            <g id="Ellipse_20" class="cls-3" transform="translate(1.319 6.916)">
                <circle cx="26" cy="26" r="26"/>
                <circle cx="26" cy="26" r="25.5" class="cls-2"/>
            </g>
            <path id="bg-4" d="M0 0H30V30H0z" class="cls-2" transform="translate(12.319 17.916)"/>
            <g id="icon-2" transform="translate(-115.868 -186.722)">
                <path id="Path_3282" fill="url(#linear-gradient)" d="M151.492 275.39l-3.62-6.27h-15.958a3.911 3.911 0 0 1-3.725-2.82 5.4 5.4 0 0 0 .721 2.82l1.026 1.778 3.9 6.76a4.946 4.946 0 0 0 4.283 2.473h9.859a5.406 5.406 0 0 0 3.04-.937c.022-.032 1.329-2.324.474-3.804z" transform="translate(0 -47.06)"/>
                <path id="Path_3283" fill="url(#linear-gradient-2)" d="M209.359 218.865l-4.8-8.306a5.4 5.4 0 0 0-1.762-1.845c-.107-.031-2.933-.845-3.923.869l-3.8 6.576 4.685 8.115 3.62 6.27c.855 1.481-.452 3.772-.47 3.8a5.4 5.4 0 0 0 1.645-1.769l.718-1.244 4.077-7.062a5.41 5.41 0 0 0 .01-5.404z" transform="translate(-51.897 -2.216)"/>
                <path id="Path_3284" fill="url(#linear-gradient-3)" d="M147.986 205.638h-9.591a5.41 5.41 0 0 0-4.685 2.705l-4.8 8.306a5.4 5.4 0 0 0-.721 2.59c.241 1.987 3.035 2.82 3.035 2.82h7.277l4.685-8.115 3.8-6.576c.99-1.715 3.815-.9 3.923-.87a5.407 5.407 0 0 0-2.923-.86z" transform="translate(-0.004)"/>
            </g>
        </g>
    </g>
</svg>
