<svg xmlns="http://www.w3.org/2000/svg" xmlns:xlink="http://www.w3.org/1999/xlink" width="95.195" height="55" viewBox="0 0 95.195 55">
    <defs>
        <linearGradient id="linear-gradient" x1=".5" x2=".5" y1="1.193" y2="-.001" gradientUnits="objectBoundingBox">
            <stop offset=".001" stop-color="#00c7e0"/>
            <stop offset="1" stop-color="#00ff8d"/>
        </linearGradient>
        <linearGradient id="linear-gradient-2" x1=".5" x2=".5" y1=".031" y2="1.008" gradientUnits="objectBoundingBox">
            <stop offset=".001" stop-color="#0062dc"/>
            <stop offset="1" stop-color="#00ff8d"/>
        </linearGradient>
        <linearGradient id="linear-gradient-3" x1=".5" x2=".5" y1="1.046" y2=".068" gradientUnits="objectBoundingBox">
            <stop offset=".001" stop-color="#00c7e0"/>
            <stop offset="1" stop-color="#0062dc"/>
        </linearGradient>
        <linearGradient id="linear-gradient-4" x1=".5" x2=".5" y1="-.037" y2=".897" xlink:href="#linear-gradient"/>
        <linearGradient id="linear-gradient-5" x1=".5" x2=".5" y1=".939" y2=".06" xlink:href="#linear-gradient-2"/>
        <linearGradient id="linear-gradient-6" x1=".5" x2=".5" y1=".051" y2="1.04" xlink:href="#linear-gradient-3"/>
        <style>
            .cls-1{fill:none}
        </style>
    </defs>
    <g id="twin-bnb" transform="translate(0.599 -4.569)">
        <path id="bg" d="M0 0H95V55H0z" class="cls-1" transform="translate(-0.599 4.569)"/>
        <g id="BNB" transform="translate(-0.863 -1.251)">
            <circle id="Ellipse_28" cx="26.097" cy="26.097" r="26.097" fill="#f0b90b" transform="translate(43.264 6.82)"/>
            <path id="bg-2" d="M0 0H30V30H0z" class="cls-1" transform="translate(54.263 17.82)"/>
            <path id="Path_359" fill="#fff" d="M22.671 24.856l-3.4 3.421-3.421-3.421 3.421-3.421zm8.28-8.279l5.85 5.85 3.421-3.421-5.85-5.827-3.421-3.421-3.421 3.421-5.83 5.826 3.421 3.421zm11.677 4.86l-3.4 3.42 3.421 3.421 3.4-3.421zm-11.677 11.7l-5.85-5.85-3.4 3.421 5.851 5.85 3.4 3.4 3.421-3.421 5.85-5.85-3.421-3.4zm0-4.86l3.421-3.421-3.421-3.421-3.421 3.421z" transform="translate(38.226 8.062)"/>
        </g>
        <g id="TWIN" transform="translate(-149.997 -229.003)">
            <g id="Ellipse_80" fill="#fff" stroke="#e5e7eb" transform="translate(149.398 234.572)">
                <circle cx="26.24" cy="26.24" r="26.24" stroke="none"/>
                <circle cx="26.24" cy="26.24" r="25.74" class="cls-1"/>
            </g>
            <path id="bg-3" d="M0 0H30V30H0z" class="cls-1" transform="translate(160.397 245.572)"/>
            <g id="icon" transform="translate(160.398 250.572)">
                <path id="Path_3070" fill="url(#linear-gradient)" d="M236.07 284.28a2.955 2.955 0 0 1-2.955-2.955v-10.5 11.491a8.369 8.369 0 0 1-3.208 6.594 8.349 8.349 0 0 0 5.179 1.792h3.463v-6.422z" transform="translate(-208.546 -270.822)"/>
                <path id="Path_3071" fill="url(#linear-gradient-2)" d="M212.022 282.313v-11.491 10.5a2.955 2.955 0 0 1-2.955 2.955h-2.475v6.423h3.463a8.348 8.348 0 0 0 5.178-1.792 8.37 8.37 0 0 1-3.211-6.595z" transform="translate(-193.872 -270.822)"/>
                <path id="Path_3072" fill="url(#linear-gradient-3)" d="M227.664 282.313v-11.491h-6.416v11.491a8.37 8.37 0 0 0 3.208 6.594 8.369 8.369 0 0 0 3.208-6.594z" transform="translate(-203.098 -270.822)"/>
                <path id="Path_3073" fill="url(#linear-gradient-4)" d="M174.752 277.241a2.955 2.955 0 0 1 2.955 2.955v10.5-11.49a8.369 8.369 0 0 1 3.208-6.595 8.349 8.349 0 0 0-5.179-1.792h-3.463v6.419z" transform="translate(-172.277 -270.822)"/>
                <path id="Path_3074" fill="url(#linear-gradient-5)" d="M198.8 279.209V290.7v-10.5a2.955 2.955 0 0 1 2.955-2.955h2.475v-6.419h-3.463a8.348 8.348 0 0 0-5.178 1.792 8.37 8.37 0 0 1 3.211 6.591z" transform="translate(-186.951 -270.822)"/>
                <path id="Path_3075" fill="url(#linear-gradient-6)" d="M186.937 282.253v11.49h6.416v-11.49a8.37 8.37 0 0 0-3.208-6.595 8.369 8.369 0 0 0-3.208 6.595z" transform="translate(-181.504 -273.866)"/>
            </g>
        </g>
    </g>
</svg>
