<?xml version="1.0" encoding="utf-8"?>
<!-- Generator: Adobe Illustrator 25.2.1, SVG Export Plug-In . SVG Version: 6.00 Build 0)  -->
<svg version="1.1" xmlns="http://www.w3.org/2000/svg" xmlns:xlink="http://www.w3.org/1999/xlink" x="0px" y="0px"
	 viewBox="0 0 59.4 39.3" style="enable-background:new 0 0 59.4 39.3;" xml:space="preserve">
<style type="text/css">
	.st0{fill:url(#SVGID_1_);}
	.st1{fill:url(#SVGID_2_);}
	.st2{fill:url(#SVGID_3_);}
	.st3{fill:url(#SVGID_4_);}
	.st4{fill:url(#SVGID_5_);}
	.st5{fill:url(#SVGID_6_);}
</style>
<g id="Layer_1">
	<g>
		
			<linearGradient id="SVGID_1_" gradientUnits="userSpaceOnUse" x1="-874.1661" y1="547.2613" x2="-874.1661" y2="546.8005" gradientTransform="matrix(17.098 0 0 -39.331 14980.1982 21545.6875)">
			<stop  offset="1.000000e-03" style="stop-color:#00B5A9"/>
			<stop  offset="1" style="stop-color:#00FF99"/>
		</linearGradient>
		<path class="st0" d="M35.9,20.8c0,3.2-2.6,5.8-5.8,5.8h-4.9v12.7H32c3.7,0,7.3-1.2,10.2-3.5c-4-3.1-6.3-8-6.3-13h0"/>
		
			<linearGradient id="SVGID_2_" gradientUnits="userSpaceOnUse" x1="-874.1693" y1="547.8417" x2="-874.1693" y2="546.9077" gradientTransform="matrix(17.099 0 0 -39.332 14955.9697 21546.2695)">
			<stop  offset="1.000000e-03" style="stop-color:#00C4DD"/>
			<stop  offset="1" style="stop-color:#00FF99"/>
		</linearGradient>
		<path class="st1" d="M4.9,12.7c3.2,0,5.8,2.6,5.8,5.8v20.8h0V16.6c0-5.1,2.3-9.9,6.3-13C14.2,1.2,10.6,0,6.9,0H0v12.7L4.9,12.7z"
			/>
		
			<linearGradient id="SVGID_3_" gradientUnits="userSpaceOnUse" x1="-874.1693" y1="546.8653" x2="-874.1693" y2="547.7443" gradientTransform="matrix(17.099 0 0 -39.331 14973.0723 21545.7051)">
			<stop  offset="1.000000e-03" style="stop-color:#0060D5"/>
			<stop  offset="1" style="stop-color:#00FF99"/>
		</linearGradient>
		<path class="st2" d="M23.4,16.6v22.7h0V18.5c0-3.2,2.6-5.8,5.8-5.8h4.9V0h-6.9C23.6,0,20,1.2,17.1,3.5
			C21.1,6.7,23.5,11.5,23.4,16.6z"/>
		
			<linearGradient id="SVGID_4_" gradientUnits="userSpaceOnUse" x1="-855.3506" y1="546.4461" x2="-855.3506" y2="545.4572" gradientTransform="matrix(12.7 0 0 -35.786 10880.0889 19560.4941)">
			<stop  offset="1.000000e-03" style="stop-color:#00C4DD"/>
			<stop  offset="1" style="stop-color:#0060D5"/>
		</linearGradient>
		<path class="st3" d="M10.7,16.6v22.7h12.7V16.6c0-5.1-2.3-9.9-6.3-13C13.1,6.7,10.7,11.5,10.7,16.6z"/>
		
			<linearGradient id="SVGID_5_" gradientUnits="userSpaceOnUse" x1="-874.0766" y1="546.5062" x2="-874.0766" y2="546.967" gradientTransform="matrix(-17.098 0 0 39.331 -14894.1445 -21494.0566)">
			<stop  offset="1.000000e-03" style="stop-color:#00C8D8"/>
			<stop  offset="1" style="stop-color:#0089D8"/>
		</linearGradient>
		<path class="st4" d="M48.6,18.5c0-3.2,2.6-5.8,5.8-5.8h4.9V0h-6.9c-3.7,0-7.3,1.2-10.2,3.5c4,3.1,6.3,8,6.3,13h0"/>
		<linearGradient id="SVGID_6_" gradientUnits="userSpaceOnUse" x1="42.262" y1="37.2692" x2="42.262" y2="5.7346">
			<stop  offset="1.000000e-03" style="stop-color:#00C4DD"/>
			<stop  offset="1" style="stop-color:#0060D5"/>
		</linearGradient>
		<path class="st5" d="M42.3,3.5c-4,3.1-6.4,8-6.4,13v6.1c0,5.1,2.3,9.9,6.3,13c4-3.1,6.4-8,6.4-13v-6.1
			C48.6,11.5,46.3,6.7,42.3,3.5z"/>
	</g>
</g>
<g id="Layer_2">
</g>
</svg>
