<?xml version="1.0" encoding="utf-8"?>
<!-- Generator: Adobe Illustrator 25.2.1, SVG Export Plug-In . SVG Version: 6.00 Build 0)  -->
<svg version="1.1" xmlns="http://www.w3.org/2000/svg" xmlns:xlink="http://www.w3.org/1999/xlink" x="0px" y="0px"
	 viewBox="0 0 63.4 41.3" style="enable-background:new 0 0 63.4 41.3;" xml:space="preserve">
<style type="text/css">
	.st0{fill:#FFFFFF;}
</style>
<g id="Layer_1">
	<g>
		<path class="st0" d="M37.9,22.8c0,3.2-2.6,5.8-5.8,5.8h-4.9v12.7H34c3.7,0,7.3-1.2,10.2-3.5c-4-3.1-6.3-8-6.3-13h0"/>
		<path class="st0" d="M10.8,16.6c0-5.1,2.3-9.9,6.3-13C14.2,1.2,10.6,0,6.9,0H0v12.7l4.9,0c3.2,0,5.8,2.6,5.8,5.8"/>
		<path class="st0" d="M25.5,18.5c0-3.2,2.6-5.8,5.8-5.8h4.9V0h-6.9C25.6,0,22,1.2,19.1,3.5c4,3.1,6.3,8,6.3,13"/>
		<path class="st0" d="M11.7,17.6v23.7h12.7V17.6c0-5.1-2.3-9.9-6.3-13C14.1,7.7,11.7,12.5,11.7,17.6z"/>
		<path class="st0" d="M52.6,18.5c0-3.2,2.6-5.8,5.8-5.8h4.9V0h-6.9c-3.7,0-7.3,1.2-10.2,3.5c4,3.1,6.3,8,6.3,13h0"/>
		<path class="st0" d="M45.3,4.5c-4,3.1-6.4,8-6.4,13v6.1c0,5.1,2.3,9.9,6.3,13c4-3.1,6.4-8,6.4-13v-6.1
			C51.6,12.5,49.3,7.7,45.3,4.5z"/>
	</g>
</g>
<g id="Layer_2">
</g>
</svg>
